<?xml version="1.0" encoding="UTF-8"?>
<svg width="80px" height="80px" viewBox="0 0 80 80" version="1.1" xmlns="http://www.w3.org/2000/svg" xmlns:xlink="http://www.w3.org/1999/xlink">
    <title>Icons/Text/audio-amplify/White</title>
    <g id="Icons/Text/audio-amplify/White" stroke="none" stroke-width="1" fill="none" fill-rule="evenodd">
        <g id="AudioAmp-Sound_RGB_white" transform="translate(10, 14)" fill="#FFFFFF" fill-rule="nonzero">
            <path d="M39.1462854,18.0364585 C38.8287696,18.0364585 38.5689033,18.2962495 38.5689033,18.6136617 L38.5689033,34.1177196 C38.5689033,34.4351318 38.8287696,34.6949228 39.1462854,34.6949228 C39.4638012,34.6949228 39.7236675,34.4351318 39.7236675,34.1177196 L39.7236675,18.6136617 C39.7236675,18.2962495 39.4638012,18.0364585 39.1462854,18.0364585 Z" id="Path"></path>
            <path d="M59.4226179,15.2542269 C59.1051021,15.2542269 58.8452359,15.5140179 58.8452359,15.8315402 L58.8452359,36.4438296 C58.8452359,36.7613519 59.1051021,37.0211429 59.4226179,37.0211429 C59.7401337,37.0211429 60,36.7613519 60,36.4438296 L60,15.8315402 C60,15.5140179 59.7401337,15.2542269 59.4226179,15.2542269 Z" id="Path"></path>
            <path d="M47.212007,15.1388744 C46.8944912,15.1388744 46.6346249,15.3986654 46.6346249,15.7160776 L46.6346249,36.2130144 C46.6346249,36.5305368 46.8944912,36.7902176 47.212007,36.7902176 C47.5295228,36.7902176 47.7893891,36.5305368 47.7893891,36.2130144 L47.7893891,15.7160776 C47.7893891,15.3986654 47.5295228,15.1388744 47.212007,15.1388744 Z" id="Path"></path>
            <path d="M51.12652,9.72457883 C50.8090042,9.72457883 50.5491379,9.98432575 50.5491379,10.301793 L50.5491379,41.8582354 C50.5491379,42.1756475 50.8090042,42.4354385 51.12652,42.4354385 C51.4440358,42.4354385 51.7039021,42.1756475 51.7039021,41.8582354 L51.7039021,10.301793 C51.7039021,9.98432575 51.4440358,9.72457883 51.12652,9.72457883 Z" id="Path"></path>
            <path d="M43.2911747,20.8994479 C42.9736589,20.8994479 42.7137927,21.1592389 42.7137927,21.4767612 L42.7137927,30.6890954 C42.7137927,31.0065076 42.9736589,31.2662986 43.2911747,31.2662986 C43.6086905,31.2662986 43.8685568,31.0065076 43.8685568,30.6890954 L43.8685568,21.4767612 C43.8685568,21.1592389 43.6144555,20.8994479 43.2911747,20.8994479 Z" id="Path"></path>
            <path d="M55.2714093,20.8994479 C54.9537827,20.8994479 54.6940272,21.1592389 54.6940272,21.4767612 L54.6940272,30.6890954 C54.6940272,31.0065076 54.9537827,31.2662986 55.2714093,31.2662986 C55.5889251,31.2662986 55.8487914,31.0065076 55.8487914,30.6890954 L55.8487914,21.4767612 C55.8487914,21.1592389 55.5946901,20.8994479 55.2714093,20.8994479 Z" id="Path"></path>
            <path d="M33.0839954,2.9999913 C32.8010693,2.65944254 32.3853276,2.42277712 31.9466369,2.34196427 C31.7272362,2.30156336 31.5019596,2.29579023 31.2826697,2.34196427 C31.1729139,2.35928367 31.0690339,2.39392247 30.965043,2.42855026 C30.8611631,2.46895117 30.7571722,2.51513624 30.6648221,2.57285655 L30.5897669,2.6190306 L30.4974168,2.67675092 L30.3126057,2.79220257 L29.9488595,3.02308383 L29.2157128,3.48485737 L23.3554178,7.1790457 L17.4952337,10.8732561 L14.5622037,12.7203282 L13.0957995,13.6438092 L12.7262883,13.8747345 L12.6338274,13.9324658 L12.5877078,13.9613315 L12.5299474,13.9959262 C12.4491272,14.0420893 12.368307,14.0883625 12.2874868,14.1229572 C11.9525653,14.2788538 11.5830541,14.3596116 11.2135429,14.3596116 L5.82100713,14.3596116 C5.75750397,14.3596116 5.69398973,14.3653407 5.63625152,14.3711799 C5.50923412,14.3827482 5.38799275,14.4000456 5.2667403,14.423072 C5.02425756,14.469235 4.78176375,14.5443739 4.550822,14.642429 C4.08892743,14.8386495 3.67323007,15.1273061 3.32681192,15.4909915 C2.98039376,15.8545667 2.70904192,16.2875517 2.54160334,16.7550212 C2.45499602,16.9916756 2.39725782,17.2341693 2.35684772,17.482392 C2.3395307,17.6035837 2.32797862,17.7305045 2.32220258,17.8575354 L2.32220258,26.9256515 L2.32797862,33.8349022 C2.34529565,34.3370766 2.46077206,34.833522 2.67439678,35.2836942 C2.88802149,35.7397057 3.19401847,36.149554 3.56930573,36.4842636 C3.944593,36.8190833 4.38338342,37.0788743 4.85681898,37.2346607 C5.09353676,37.3155287 5.33603058,37.37326 5.59006539,37.4021257 C5.65357964,37.4135838 5.71708279,37.4135838 5.774821,37.419423 C5.80369011,37.419423 5.83833525,37.4251521 5.86720435,37.4251521 L11.4964689,37.4251521 C11.5426994,37.4251521 11.588819,37.4309913 11.6408145,37.4367204 C11.8313905,37.4540178 12.0218556,37.5001808 12.1950259,37.5694804 C12.2874868,37.6040752 12.374072,37.6445091 12.4548921,37.6849431 C12.4952468,37.7079695 12.5357123,37.7311061 12.5761779,37.7541325 L12.6338274,37.7945665 L12.6800578,37.8234322 L13.4075504,38.296741 L19.2273799,42.0601849 L25.0413336,45.829468 L27.9511929,47.7111349 L29.406178,48.6520234 L30.1336705,49.1253322 L30.4974168,49.3619866 L30.5204766,49.3735549 L30.5377714,49.3851232 L30.572472,49.4081496 L30.6475273,49.4543126 C30.6995227,49.4774492 30.7456423,49.5063149 30.7976377,49.5294515 C31.2075036,49.7141036 31.6694758,49.7486984 32.1025123,49.6217776 C32.3219131,49.5640462 32.5239081,49.4601519 32.7087192,49.3331209 C32.8934194,49.2003609 33.0550597,49.0445744 33.1821104,48.8598121 C33.3091611,48.67516 33.4072761,48.4731003 33.4592715,48.2594724 L33.4765664,48.1787146 C33.4823313,48.1498489 33.4880963,48.1209833 33.4938612,48.0978467 C33.505502,48.0402255 33.511267,47.9882232 33.5170319,47.9304919 C33.5227969,47.8727606 33.5227969,47.8150292 33.5285618,47.7631371 L33.5285618,4.22947037 C33.5285618,3.99857809 33.4880963,3.77923208 33.418806,3.57144335 C33.3379858,3.36364361 33.2283409,3.16739013 33.0839954,2.9999913 Z M32.3507379,11.1560735 L32.3507379,47.7400005 C32.3449729,47.7631371 32.3507379,47.7920028 32.3449729,47.8150292 C32.339208,47.8381658 32.3449729,47.8611923 32.333443,47.8843289 C32.333443,47.8958972 32.333443,47.9074655 32.327678,47.9189236 C32.3219131,47.9304919 32.3219131,47.9420602 32.3160373,47.9477893 C32.2987424,48.0343863 32.2583878,48.1036859 32.2121573,48.1729855 C32.1659268,48.242175 32.0967474,48.3057456 32.0216922,48.3633667 C31.9466369,48.415369 31.8599409,48.461532 31.7733558,48.4846686 C31.6867706,48.5135343 31.6001855,48.5192634 31.5136004,48.5135343 C31.4269044,48.5076951 31.3518491,48.4846686 31.265264,48.4499637 C31.2422042,48.4442347 31.2249093,48.4269373 31.2017387,48.4210981 C31.1902088,48.415369 31.1786789,48.4096399 31.1729139,48.4038007 L31.155619,48.3922324 C31.1517388,48.3922324 31.1478585,48.3903594 31.1440891,48.3865033 L31.1209185,48.374935 L30.7571722,48.1382806 L30.0297905,47.6649718 L28.5748054,46.7240833 L25.6649461,44.8424165 L19.8624115,41.0731333 L14.042582,37.3096894 L13.3152003,36.8363806 L13.2689698,36.807515 C13.2401451,36.7902176 13.2112094,36.7671912 13.1766197,36.7497836 C13.1130944,36.7094598 13.055334,36.6747549 12.9918087,36.6401602 C12.864758,36.5708606 12.7320533,36.5131292 12.5992377,36.4612371 C12.3278415,36.3573428 12.0449154,36.2938824 11.7562244,36.2650167 C11.6870449,36.2591775 11.6119897,36.2534484 11.5426994,36.2476092 L5.91339048,36.2476092 C5.89029742,36.2476092 5.8729693,36.2418801 5.84987624,36.2418801 C5.80369011,36.2418801 5.76328001,36.236151 5.72285883,36.2303118 C5.55542025,36.2072854 5.38799275,36.1725805 5.2263302,36.1148491 C4.90300511,36.0052257 4.60278417,35.8320317 4.34297332,35.6012166 C4.08315139,35.3702912 3.87530271,35.0874738 3.73096828,34.7815198 C3.58662276,34.4698367 3.50579149,34.135017 3.4942505,33.7887392 L3.4942505,17.8921302 C3.50002654,17.8056433 3.50579149,17.7247754 3.51734357,17.6381784 C3.54043663,17.4708237 3.58084672,17.309198 3.63858493,17.1475723 C3.75406135,16.8300499 3.93881696,16.5356642 4.1697587,16.2932807 C4.40070045,16.0508973 4.6893804,15.8488376 5.0011645,15.7160776 C5.15705101,15.6526172 5.31870247,15.6006149 5.48614105,15.5717493 C5.56697232,15.5544519 5.65357964,15.5428836 5.73441091,15.5371545 C5.774821,15.5371545 5.82100713,15.5255862 5.86142831,15.5313153 L11.2135429,15.5313153 C11.7504594,15.5313153 12.2932518,15.4159628 12.7781729,15.1850375 C12.8994586,15.1273061 13.0207443,15.0638457 13.1361542,14.9945461 L13.2169744,14.942654 L13.2632049,14.9137883 L13.355555,14.856057 L13.7250662,14.6251317 L15.1915812,13.7015405 L18.1246112,11.8544684 L23.9847953,8.1603131 L29.8449795,4.46612477 L30.578237,4.00435123 L30.9419832,3.77346997 L31.1266834,3.65801832 L31.2191444,3.600298 L31.2537341,3.5829786 C31.2941996,3.55412395 31.3345543,3.54257769 31.3750198,3.52525829 C31.4153745,3.51372304 31.45584,3.49640364 31.4961946,3.49640364 C31.5771257,3.47908424 31.6579459,3.48485737 31.744531,3.49640364 C31.9119363,3.52525829 32.0908716,3.62339053 32.1948624,3.75615057 C32.2526228,3.81964401 32.2872125,3.89468373 32.3160373,3.96972345 C32.3219131,3.98703183 32.333443,4.01012436 32.333443,4.02744376 C32.333443,4.03899003 32.339208,4.04475214 32.339208,4.05629841 C32.339208,4.06784468 32.339208,4.07939094 32.3449729,4.09093721 C32.3507379,4.10824559 32.3507379,4.13711126 32.3565028,4.16020379 L32.3565028,4.23523249 L32.3507379,11.1560735 Z" id="Shape"></path>
            <path d="M35.8209061,3.87174544 C35.8093762,3.75053168 35.7978463,3.62931791 35.7746756,3.50810415 C35.7631457,3.45038383 35.7516158,3.38689038 35.7400859,3.32917007 L35.6938555,3.15022497 C35.6650307,3.02901121 35.6245652,2.91357058 35.5842105,2.79235681 C35.4166943,2.32481014 35.1627039,1.88612913 34.8451881,1.51093055 C34.2100456,0.754782298 33.3266776,0.246832504 32.3567245,0.0678951186 C31.8716925,-0.0186875582 31.3694766,-0.0244595898 30.8786796,0.062123087 C30.6362191,0.10252841 30.3937585,0.17179389 30.162717,0.252604535 C29.9317863,0.339187212 29.7066206,0.443085983 29.5046256,0.56430085 L29.3544043,0.656655558 L29.2620542,0.714376975 L29.077354,0.829822013 L28.7078428,1.06070328 L27.9745853,1.52247682 L22.1144011,5.21666515 L16.2541061,8.91084247 L13.321187,10.7579036 L11.854672,11.6814947 L11.4851608,11.9124201 L11.3928107,11.9700412 L11.3465802,11.9989069 L11.3350503,12.0047461 C11.3292853,12.0104752 11.3177554,12.0163144 11.3119905,12.0163144 C11.2772899,12.0336118 11.2369353,12.0393409 11.2022347,12.0393409 L5.87320212,12.0393409 L5.72309165,12.0451801 C5.61916731,12.0451801 5.52100792,12.0566382 5.41708358,12.0624775 C5.21501094,12.0797748 5.0129383,12.1086405 4.81085458,12.1490745 C4.41247425,12.2298322 4.01410501,12.3452949 3.63881775,12.5069206 C2.88247827,12.8243327 2.20118294,13.2976415 1.64115116,13.886413 C1.08110828,14.4751844 0.636539606,15.1794186 0.359407297,15.9528422 C0.220840034,16.3396641 0.122689515,16.7379442 0.0649530818,17.1419534 C0.0360850867,17.344013 0.0187641788,17.5459625 0.00721700293,17.7480222 L0.00144340391,17.8980796 L0.00144340391,33.4078666 C0.00144340391,33.5580342 -0.00433020619,33.6733867 0.00721700293,33.8985829 C0.0360850867,34.7066012 0.226613854,35.5147297 0.573030904,36.2535586 C0.919446845,36.9923874 1.41019833,37.6504585 2.01642733,38.193067 C2.62265634,38.7355652 3.33280968,39.1512528 4.10647727,39.4109337 C4.49330552,39.5436937 4.89168585,39.6302907 5.29584222,39.682293 C5.39399052,39.6937511 5.49791486,39.7053194 5.59606316,39.7110485 C5.64802533,39.7168877 5.6999875,39.7168877 5.74618471,39.7226168 L5.89629518,39.728456 L11.375405,39.728456 L11.4216354,39.7573217 L12.149128,40.2306305 L17.9689575,43.9940743 L23.7886761,47.7632473 L26.6986463,49.6450243 L28.1535205,50.5859129 L28.881013,51.0592217 L29.2447593,51.2958761 L29.2678191,51.3073342 L29.3025197,51.3304708 L29.3775749,51.3766338 L29.5334504,51.4689599 C29.6430953,51.5266912 29.7470862,51.5844225 29.8567311,51.6305856 C30.3012976,51.8269162 30.7920945,51.953837 31.2828914,51.9885419 L31.4675916,52 L31.6524027,52 C31.7735775,52 31.8948632,51.9885419 32.0219139,51.9769736 C32.2643744,51.9481079 32.506835,51.9076739 32.7377657,51.8383743 C33.2055028,51.7056143 33.6441934,51.4920965 34.0426403,51.2150081 C34.4352113,50.9321907 34.7874277,50.5859129 35.0703538,50.1817935 C35.3532799,49.7777844 35.5668048,49.321773 35.6880905,48.8426249 L35.734321,48.6637019 C35.7458509,48.6059705 35.7573808,48.5425101 35.7689107,48.4847788 C35.7920814,48.3635871 35.8036113,48.2423953 35.8151412,48.1269327 C35.8266711,48.0057409 35.8266711,47.8902783 35.832436,47.7690865 L35.832436,4.22962462 L35.8266711,4.05069054 C35.8266711,3.99297022 35.8266711,3.92947677 35.8209061,3.87174544 Z M34.660377,11.1561837 L34.660377,47.751679 C34.6546121,47.838276 34.660377,47.924873 34.6488471,48.01147 C34.6373172,48.098067 34.6315523,48.184664 34.6142574,48.271261 C34.6084925,48.317424 34.5968517,48.357858 34.5910867,48.404021 L34.562262,48.5309418 C34.4756768,48.8773298 34.3198014,49.2005812 34.1176955,49.494967 C33.9155896,49.7835134 33.6615992,50.0374652 33.3729081,50.2452539 C33.0842171,50.4473136 32.7667013,50.6032102 32.4260148,50.7012654 C32.2586095,50.7532676 32.0795634,50.7821333 31.9063931,50.8051597 C31.819808,50.810999 31.7274579,50.8225673 31.6407619,50.8225673 L31.5080571,50.8225673 L31.3752415,50.816728 C31.0172602,50.7937016 30.6708088,50.7012654 30.347528,50.5570472 C30.2667079,50.5223423 30.1916526,50.4819083 30.1108324,50.4415845 L29.9953117,50.3722849 L29.9375513,50.3376902 L29.9087265,50.3203928 L29.8856667,50.3088245 L29.5219205,50.0721701 L28.7944279,49.5988613 L27.3336779,48.6579728 L24.4238186,46.7761958 L18.6039891,43.0127519 L12.7841596,39.249308 L12.0567779,38.7759992 L12.0105474,38.7471335 L11.9817227,38.7298361 C11.958552,38.7182678 11.9412571,38.7066995 11.9181973,38.6952414 C11.8777318,38.6721048 11.8316122,38.6490784 11.7853817,38.6375101 C11.6930316,38.6028052 11.6005707,38.5797787 11.5024556,38.5682104 C11.4793958,38.5682104 11.4562251,38.5624814 11.4274004,38.5624814 L6.0406407,38.5624814 L5.91938825,38.5566421 L5.79814688,38.5509131 C5.7577257,38.5509131 5.71731561,38.5450738 5.67689443,38.5393448 C5.59606316,38.5336157 5.51523188,38.5277765 5.4344117,38.5163184 C5.1110866,38.4758844 4.78776151,38.4008557 4.48176453,38.2969613 C3.86398345,38.0891726 3.28662355,37.7485137 2.79587096,37.3156388 C2.30510728,36.882764 1.91250299,36.3458846 1.63537512,35.7513841 C1.35823616,35.1568836 1.20234965,34.5103808 1.17925658,33.858149 C1.17348055,33.684955 1.17348055,33.5521949 1.17348055,33.4078666 L1.17348055,17.8057535 C1.17925658,17.6441278 1.1965847,17.4767731 1.21967776,17.3151474 C1.26586389,16.991896 1.34669517,16.6686446 1.45639554,16.3626905 C1.68156125,15.7450534 2.03375545,15.1794186 2.4898629,14.7061098 C2.94598143,14.232801 3.49447223,13.8518183 4.10070123,13.5978665 C4.40093326,13.4708355 4.71848232,13.3727804 5.04179632,13.3150491 C5.20345887,13.2861834 5.36512141,13.2630468 5.52678396,13.2457494 C5.60761523,13.2400204 5.68844651,13.2284521 5.76927778,13.2284521 L5.89051915,13.2226128 L11.2079996,13.2226128 C11.4158705,13.2226128 11.6237413,13.1764498 11.8084415,13.0898528 C11.854672,13.0668264 11.9007916,13.0436898 11.9470221,13.0206633 L11.9817227,12.9975267 L12.0278423,12.9686611 L12.1201924,12.9109297 L12.4897036,12.6801146 L13.9562186,11.7565234 L16.8892486,9.90942927 L22.7494327,6.21525195 L28.6096169,2.52106362 L29.3428744,2.05929007 L29.7066206,1.82840881 L29.8914317,1.71295716 L29.9837818,1.65523685 L30.0993025,1.5917434 C30.7055094,1.23387524 31.4560617,1.10111521 32.1546186,1.23387524 C32.8532864,1.36663527 33.4999588,1.7360497 33.9560551,2.27863609 C34.1869858,2.54992928 34.365921,2.86739653 34.4872067,3.20218317 C34.6026166,3.53696981 34.666142,3.89483797 34.666142,4.24117088 L34.660377,11.1561837 Z" id="Shape"></path>
        </g>
    </g>
</svg>