<?xml version="1.0" encoding="UTF-8"?>
<svg width="80px" height="80px" viewBox="0 0 80 80" version="1.1" xmlns="http://www.w3.org/2000/svg" xmlns:xlink="http://www.w3.org/1999/xlink">
    <title>Icons/Text/LTE_Advanced_Pro/White</title>
    <g id="Icons/Text/LTE_Advanced_Pro/White" stroke="none" stroke-width="1" fill="none" fill-rule="evenodd">
        <g id="Camera-DSLR_RGB_white" transform="translate(8, 15)" fill="#FFFFFF" fill-rule="nonzero">
            <path d="M60.5723347,43.1496957 L60.5723347,18.1587201 C60.5662566,17.0834528 60.1353073,16.0202924 59.3887734,15.2410529 C59.2916429,15.1504878 59.2005906,15.0476971 59.0975012,14.9631855 C59.0488764,14.9209297 58.9942927,14.8726204 58.9456679,14.8362994 L58.7817975,14.7154668 C58.7272137,14.6732111 58.67263,14.6430623 58.611849,14.6006878 C58.5511871,14.5644855 58.5026815,14.5222297 58.4420197,14.4919622 L58.3023425,14.4135041 L58.2659931,14.3953436 C58.2538369,14.3892901 58.2416807,14.3892901 58.2295245,14.3832366 L58.1567064,14.3651948 L56.3904816,13.9180669 L52.8156044,13.0301018 L52.5910722,12.9757391 L52.3422276,12.9032158 C52.1722791,12.86096 52.0144868,12.7944902 51.8566945,12.7280204 C51.814267,12.7099786 51.7777984,12.6978716 51.7353708,12.6797111 L51.6200061,12.6253484 L51.3893958,12.5105693 C51.3104996,12.4683135 51.2376816,12.4260577 51.1647444,12.3838019 L51.0555769,12.3173321 C51.0191083,12.2931182 50.9827588,12.2749577 50.9462902,12.2508624 C50.3697048,11.8703229 49.8659375,11.3870045 49.4653787,10.8252043 C49.0708979,10.2573743 48.7855847,9.61704481 48.6338705,8.94650716 C48.6217143,8.90422763 48.6095581,8.86193624 48.60348,8.81965671 L48.5853649,8.69279439 L48.5428182,8.43908161 C48.530662,8.35451068 48.530662,8.26993976 48.5245839,8.17932721 C48.5185058,8.09475628 48.5124277,8.00414373 48.5124277,7.9195728 L48.5124277,6.55434287 C48.5124277,6.48789683 48.5063496,6.42143892 48.5003906,6.35499288 C48.5003906,6.31875498 48.4943125,6.28854683 48.4943125,6.25229707 L48.4821563,6.14961312 C48.4456877,5.88380522 48.391104,5.61800919 48.3061297,5.36429641 C48.1361813,4.85687086 47.8751804,4.37964158 47.5292053,3.96282858 C47.1832303,3.55204534 46.7584782,3.20167838 46.2849822,2.94192398 C45.8116053,2.68216957 45.2896037,2.51906935 44.755565,2.45262331 C44.4824079,2.41637354 44.2335633,2.41637354 43.9119006,2.41637354 L33.5514785,2.41637354 L33.3511395,2.42241517 L33.1509197,2.43449842 L32.9505807,2.45866494 C32.6835017,2.50094446 32.4226201,2.56134888 32.1676973,2.65196143 C31.6578519,2.82714491 31.184475,3.1050242 30.7777189,3.45539116 C30.3468888,3.80576999 30.0009137,4.23466624 29.7520691,4.71189552 C29.5032244,5.18911293 29.3393541,5.70862174 29.2846511,6.24022568 C29.2786922,6.30667172 29.2726141,6.37311776 29.266536,6.4395638 C29.2604579,6.50602171 29.2604579,6.57246775 29.2604579,6.63891379 L29.2543798,6.88054331 C29.2543798,6.96511424 29.2422236,7.04968516 29.2422236,7.13426796 C29.2118331,7.47859329 29.1572494,7.81687699 29.066197,8.14911906 C28.8840923,8.80757345 28.5745859,9.4358197 28.1557927,9.98553665 C27.7430777,10.5352536 27.221076,11.0064294 26.6324536,11.362838 C26.043712,11.7192228 25.3882305,11.9669414 24.7084365,12.0817205 L21.0668194,12.6736576 L13.7896633,13.8576506 L6.51243561,15.0417623 L6.05723347,15.1141668 L5.85694215,15.1504878 L5.66272892,15.1987971 C5.40174001,15.2652669 5.14682919,15.355832 4.90405074,15.470611 C4.41850577,15.7001692 3.97543599,16.0202924 3.6052081,16.4129389 C3.2349802,16.8055853 2.94364845,17.2647016 2.74335712,17.7660737 C2.5430658,18.2675644 2.439893,18.7990853 2.439893,19.3367783 L2.439893,43.4034678 C2.439893,43.4698189 2.439893,43.5362887 2.45202537,43.6027585 C2.45809156,43.735698 2.47630202,43.8685189 2.50057868,44.0014584 C2.5430658,44.2672189 2.60982957,44.5270445 2.70693619,44.7806979 C2.89509514,45.28207 3.17428261,45.7532932 3.53237814,46.1519932 C3.89047367,46.5506932 4.32746534,46.8889769 4.80694413,47.130642 C5.28642292,47.3721885 5.81445502,47.5232885 6.35463141,47.5715978 C6.42139518,47.5776513 6.48815896,47.5837048 6.55492273,47.5837048 L6.76128024,47.5897583 L56.2873922,47.5897583 L56.4876121,47.5837048 L56.6879511,47.5715978 C56.754691,47.5655443 56.8214309,47.5534373 56.8881709,47.5473838 C57.1552498,47.5111815 57.4162506,47.4447117 57.6711734,47.3541467 C58.1810188,47.1789513 58.6543957,46.9071374 59.0671107,46.5567467 C59.4798257,46.206356 59.8197227,45.7775072 60.0685673,45.306284 C60.3234901,44.8290072 60.4812824,44.3094747 60.5358661,43.7779538 C60.5480223,43.6450142 60.5601785,43.5121934 60.5601785,43.3732003 C60.5723347,43.3067305 60.5723347,43.222219 60.5723347,43.1496957 Z M58.9821365,44.7263351 C58.8000318,45.0646188 58.5572653,45.3727537 58.2659931,45.6203537 C57.9746017,45.8741258 57.6347048,46.0673629 57.2706146,46.1881955 C57.0885099,46.2486118 56.9064052,46.2969211 56.7121443,46.3211351 C56.6636387,46.3271886 56.615133,46.3332421 56.5665082,46.3392956 L56.4208721,46.3512839 C56.3723665,46.3512839 56.3237417,46.3512839 56.275236,46.3573374 L6.76128024,46.3573374 L6.60954222,46.3512839 C6.56098892,46.3512839 6.51243561,46.3453491 6.4638823,46.3392956 C6.08151012,46.3029746 5.70520413,46.2003025 5.36531907,46.0251072 C5.01936782,45.8559653 4.70983752,45.6143002 4.45491479,45.3303793 C4.20000397,45.0464583 3.99364646,44.7081746 3.8661851,44.3518491 C3.79943324,44.1706003 3.75086802,43.9893514 3.72052518,43.7961143 C3.70839281,43.699377 3.69018234,43.608812 3.69018234,43.5121934 C3.68410424,43.4637654 3.68410424,43.4154561 3.68410424,43.3671468 L3.68410424,19.3428318 C3.68410424,18.9561201 3.75694612,18.5755806 3.89653985,18.2191364 C4.03613359,17.8628109 4.24855728,17.5305807 4.50954619,17.2525946 C4.77052319,16.9747272 5.09219778,16.7451691 5.43816094,16.5820807 C5.60809751,16.4975691 5.79017837,16.4371528 5.97832541,16.3888436 L6.11793106,16.3585761 L6.26359098,16.3284273 L6.71879312,16.255904 L13.9959612,15.071911 L21.2731173,13.8879181 L24.9329687,13.2899275 C25.7644769,13.1448809 26.5716726,12.8427995 27.2879352,12.4078972 C28.0101567,11.9729949 28.6413258,11.3930461 29.1511713,10.7225203 C29.6610167,10.0519827 30.0372631,9.28480273 30.2679926,8.47533138 C30.3832382,8.07058977 30.4560563,7.65377677 30.4864468,7.2369519 C30.4925249,7.13426796 30.5046811,7.02553052 30.5046811,6.92283471 L30.5107592,6.76577612 L30.5107592,6.65703868 C30.5107592,6.60870565 30.5107592,6.5603845 30.5168373,6.51205147 C30.5229154,6.46373031 30.5229154,6.41540916 30.5288743,6.36707613 C30.5653429,5.98650103 30.6807077,5.61800919 30.8626932,5.27972549 C31.0447979,4.94144179 31.2875644,4.63335436 31.5789557,4.38568321 C31.8702279,4.13197043 32.2101249,3.93866207 32.5682562,3.81181161 C32.7503608,3.75139533 32.9323464,3.70307418 33.1266073,3.67286603 L33.2722433,3.65474115 C33.3208681,3.65474115 33.3693738,3.64869952 33.4179986,3.64265789 L33.5636347,3.63661626 L43.9240568,3.63661626 C44.2820689,3.63661626 44.415668,3.63661626 44.6158878,3.66078278 C44.9983315,3.7091158 45.3684998,3.823883 45.7023187,4.01114974 C46.0361376,4.19237484 46.3396851,4.44608762 46.5885297,4.74209179 C46.8373744,5.03809597 47.025438,5.37637967 47.1408027,5.73882988 C47.2014646,5.92005499 47.2440113,6.10732173 47.2682045,6.29458846 L47.2803607,6.36707613 C47.2803607,6.39124264 47.2864388,6.41540916 47.2864388,6.4395638 C47.2925169,6.48789683 47.298595,6.53621798 47.2925169,6.58455101 L47.2925169,7.93165606 C47.2925169,8.03435187 47.3046731,8.14307744 47.3107512,8.25181487 C47.3168293,8.36055231 47.3229074,8.46324812 47.3350636,8.57198556 L47.3835693,8.88610275 L47.4078817,9.04316134 C47.4139598,9.097536 47.4320749,9.14585715 47.4442311,9.20023181 C47.6324139,10.0338578 47.978389,10.8252043 48.463922,11.5199322 C48.9555332,12.2086066 49.5685872,12.8065972 50.2786525,13.271767 C50.3211992,13.3019158 50.3697048,13.3321832 50.4121324,13.3562785 L50.5457314,13.4348553 C50.6367838,13.4892181 50.7278361,13.5435809 50.8188885,13.5918902 L51.1040825,13.7308832 L51.2497186,13.797353 C51.2983434,13.8214483 51.3468491,13.8396088 51.3954739,13.8576506 C51.5896156,13.9362274 51.7899546,14.0148041 51.9901744,14.0691669 L52.2937219,14.159732 L52.5182542,14.2140948 L56.0931313,15.1141668 L57.8168095,15.5491878 L57.8228876,15.5551226 C57.8654343,15.5793366 57.9017837,15.6096041 57.9443304,15.6336994 C57.9867579,15.6639669 58.0293047,15.6820087 58.0656541,15.7122762 C58.1021227,15.7424249 58.1445502,15.7726924 58.1810188,15.7967877 C58.2173683,15.8270552 58.2538369,15.857204 58.2901863,15.8874715 C58.3630044,15.9478878 58.4298635,16.0202924 58.5026815,16.0867621 C59.0306421,16.642497 59.3402678,17.4036947 59.3463459,18.1708271 L59.3463459,43.3550398 C59.3463459,43.4517771 59.3402678,43.5483957 59.3281116,43.6450142 C59.2794867,44.0256724 59.1642412,44.3941049 58.9821365,44.7263351 Z" id="Shape"></path>
            <path d="M63,18.1466132 C62.987963,17.3069574 62.8301707,16.4673016 62.5083888,15.6880622 C62.4355708,15.4886528 62.3384404,15.3014692 62.2475072,15.1141668 C62.1988824,15.0175483 62.1442986,14.932918 62.0956738,14.8362994 L62.0167777,14.6973064 C61.9865063,14.6489971 61.9621939,14.6067413 61.9318034,14.5644855 L61.755896,14.3046599 L61.5616351,14.0570599 C61.5312446,14.0146855 61.5009733,13.9724297 61.4645047,13.9301739 L61.3612961,13.8093413 C61.2884781,13.7307645 61.2217382,13.6523065 61.1489201,13.5737297 C60.9972059,13.4288018 60.8514507,13.2716483 60.6936584,13.1388274 C60.6147622,13.0723576 60.5358661,12.9998343 60.4508919,12.9333646 L60.1959691,12.7461809 C60.1109949,12.6797111 60.0199425,12.6253484 59.9349683,12.5709856 C59.8440351,12.5166228 59.7590609,12.4562065 59.6680085,12.4018437 L59.2674497,12.1843926 L59.1642412,12.1300298 C59.1277726,12.1179228 59.0914231,12.1118693 59.0549545,12.0997623 L58.8304223,12.0453995 L56.9853013,11.5802298 L53.4104241,10.6801815 L53.1858919,10.6258187 C53.1373863,10.6137354 53.0948396,10.5956105 53.0463339,10.5835273 C52.9552816,10.5593726 52.8642292,10.5231229 52.7731769,10.486885 C52.7488645,10.4808433 52.7246713,10.4748017 52.706437,10.4627185 L52.639697,10.4325103 C52.5971503,10.4083438 52.5547228,10.3902308 52.5121761,10.3721059 C52.4697485,10.3479394 52.4332799,10.3237729 52.3908524,10.2996182 L52.3300714,10.2633685 C52.3119562,10.2512852 52.2876438,10.2392019 52.2694095,10.2271187 C51.953825,10.0156973 51.6745898,9.74990128 51.4500576,9.44181385 C51.2375624,9.13373829 51.0858482,8.78337133 51.000874,8.42092112 C50.9947959,8.3967546 50.988837,8.37862972 50.9827588,8.35446321 L50.9706026,8.28801717 C50.9645245,8.23969601 50.9584464,8.19740461 50.9462902,8.14908346 C50.9402121,8.10075043 50.9402121,8.0584709 50.934134,8.01013788 C50.934134,7.96181672 50.9219778,7.91952532 50.9219778,7.87120417 L50.9219778,6.62679493 L50.934134,6.46368284 C50.934134,6.36099889 50.9219778,6.25226146 50.9158997,6.14956565 C50.9098216,6.09520286 50.9098216,6.04686984 50.9038627,5.99250705 L50.8856284,5.83543659 C50.8309255,5.41862359 50.7398731,5.00785222 50.6063933,4.60915223 C50.3453924,3.81176414 49.9265993,3.06269719 49.3864825,2.41632606 C48.8462465,1.7699668 48.1846869,1.22629148 47.4442311,0.821549864 C46.7037753,0.416817747 45.8844234,0.157060968 45.0468371,0.0543675322 L44.8890449,0.0362450215 L44.7312526,0.024162952 C44.628044,0.0181225107 44.5188765,0.00604044126 44.415668,0.00604044126 C44.1789796,0 44.0575367,0 43.8997444,0 L33.521088,0 C33.4179986,0 33.3087119,0.00604044126 33.2055034,0.00604044126 L32.8899188,0.0302045802 C32.7867103,0.0422854627 32.6775428,0.0543675322 32.5743343,0.0664496017 C32.1555411,0.126857575 31.7428261,0.229551011 31.3422673,0.368490656 C30.5410305,0.646368758 29.8005747,1.07526264 29.1633275,1.62497959 C28.5260802,2.17469654 27.9919223,2.83919256 27.5974416,3.582206 C27.209039,4.32523132 26.9601944,5.14678593 26.869142,5.9804238 C26.8569858,6.08311961 26.8509077,6.19184517 26.8448296,6.29454098 C26.8387515,6.39723679 26.8387515,6.50597423 26.8326734,6.60867004 L26.8265953,6.80197841 C26.8265953,6.85029956 26.8205172,6.89863259 26.8205172,6.94695374 C26.808361,7.14026211 26.7720116,7.32752884 26.7233868,7.50875395 C26.6202974,7.87724579 26.4503489,8.22761275 26.2136605,8.52964669 C25.982931,8.83773412 25.6916588,9.09748852 25.3639181,9.29683851 C25.0361773,9.4961885 24.6719679,9.63512221 24.2896434,9.70156825 L22.1593284,10.0459055 L21.8861713,8.28197554 C21.7768847,7.56915836 21.3945602,6.94091212 20.8118967,6.51805749 C20.2292332,6.08916123 19.5129706,5.91397775 18.8029053,6.02270332 L11.4953825,7.12817885 C10.7792034,7.23691629 10.1479865,7.61749139 9.72312724,8.19740461 C9.29220176,8.7773297 9.116199,9.49014688 9.22543798,10.202964 L9.51676973,12.1058158 L6.11791914,12.6554971 L5.662717,12.7280204 L5.3531867,12.7823832 L5.04364448,12.8549065 C4.63699564,12.9575786 4.23642491,13.1025064 3.85405273,13.2837553 C3.08930837,13.646253 2.39740588,14.147625 1.82080856,14.7577226 C1.24422316,15.3678203 0.789018632,16.0928156 0.473411417,16.8720551 C0.16387277,17.6573481 0,18.4970039 0,19.3366596 L0,43.300677 L0.00606936584,43.4577119 C0.00606936584,43.560384 0.012138684,43.6691095 0.0182080856,43.7719003 C0.0303468888,43.9832979 0.054624376,44.1886421 0.0910405472,44.3941049 C0.157804203,44.8108467 0.267052717,45.2156002 0.412717401,45.6143002 C0.704046771,46.4056466 1.14711058,47.1365768 1.71155766,47.764835 C2.26994452,48.3930931 2.94971463,48.9126256 3.70838089,49.2871116 C4.46098097,49.6676511 5.29248911,49.9032627 6.13006343,49.975786 C6.23324814,49.9818395 6.34248712,49.9939465 6.44567184,49.9939465 L6.60347604,50 L56.2933512,50 L56.6090549,49.9939465 L56.9246395,49.9697325 C57.027848,49.9576255 57.1370155,49.9456372 57.2402241,49.9335302 C57.6590172,49.8731139 58.0717322,49.7704419 58.472291,49.6375023 C59.2735278,49.3596349 60.0139836,48.9367209 60.657309,48.3870396 C61.3006343,47.8373582 61.8287141,47.1728978 62.2231948,46.4298606 C62.6176755,45.6868235 62.8725982,44.8652095 62.9575725,44.0316072 C62.9758068,43.8202096 62.9940411,43.6147468 62.9940411,43.4033491 L62.9940411,21.8254781 L63,18.1466132 Z M10.427174,10.0217389 C10.3664883,9.62908059 10.463595,9.2364341 10.7002953,8.91626341 C10.9370076,8.5961046 11.2829588,8.38467135 11.6774634,8.33030856 L18.98501,7.22483303 C19.3794907,7.16442862 19.7739714,7.2610828 20.0956341,7.49667069 C20.4174159,7.73225859 20.629792,8.07658392 20.6843757,8.46924227 L20.9575327,10.2512852 L20.6722195,10.2996182 L13.3950634,11.4836112 L10.7124396,11.9185135 L10.427174,10.0217389 Z M61.767933,36.498682 L61.767933,43.3851886 C61.767933,43.5543305 61.755896,43.7295258 61.7376617,43.8986677 C61.6648437,44.5812886 61.4584266,45.2518025 61.1367639,45.8559653 C60.8151012,46.4600094 60.3780738,47.0096908 59.8560721,47.4567 C59.3341897,47.903828 58.7272137,48.2541 58.0778103,48.4776046 C57.7500695,48.5923837 57.4162506,48.6709605 57.0763537,48.7192698 C56.9913794,48.7313768 56.9064052,48.7434838 56.8214309,48.7495373 L56.5665082,48.7675791 L56.3115855,48.7736326 L6.76128024,48.7736326 L6.50636943,48.7675791 C6.42139518,48.7675791 6.33642094,48.7555908 6.25144669,48.7495373 C5.56561039,48.689121 4.89190646,48.4957651 4.27283393,48.1877489 C3.65982759,47.879614 3.10145265,47.4507652 2.64625051,46.9433397 C2.18497027,46.4298606 1.82687474,45.8317513 1.5901744,45.1915049 C1.46879113,44.871263 1.38381689,44.5329793 1.3291974,44.1946956 C1.29884264,44.0255537 1.28063218,43.8564119 1.26849981,43.6812165 C1.26243362,43.596705 1.25635552,43.5120747 1.25635552,43.4275631 L1.25635552,19.3427131 C1.25635552,18.6600922 1.38988307,17.9714178 1.6387277,17.3311714 C1.88757233,16.6908063 2.26387833,16.1048039 2.73729094,15.6034319 C3.21069163,15.1020598 3.77514467,14.6912529 4.4002953,14.3953436 C4.7098256,14.2502971 5.03757829,14.1294645 5.37139717,14.0449529 L5.6202418,13.9845367 L5.87515261,13.9362274 L6.33035475,13.8637041 L13.5954024,12.6857646 L20.8725585,11.5017717 L24.5020194,10.9097396 C25.5641379,10.7285145 26.5534383,10.1304764 27.1968828,9.26663037 C27.5246236,8.83773412 27.7673901,8.34842158 27.9069481,7.82891277 C27.9797661,7.56915836 28.028391,7.30336233 28.0465061,7.0375663 C28.0465061,6.97112026 28.0586623,6.90466235 28.0586623,6.83821631 L28.0647404,6.6207533 C28.0647404,6.53618237 28.0647404,6.45161145 28.0708185,6.36702865 C28.0768966,6.28245773 28.0829747,6.1978868 28.0890528,6.11331588 C28.1618708,5.43070684 28.3682879,4.7601692 28.6899506,4.15608947 C29.0116133,3.55200973 29.4486407,3.00229278 29.9705232,2.55527164 C30.4925249,2.1082505 31.0995008,1.75788354 31.7489042,1.53436704 C32.076645,1.41959984 32.4104639,1.34105867 32.7503608,1.28669589 C32.8353351,1.27461263 32.9203093,1.26252938 33.0052836,1.25648775 L33.2602063,1.23837473 L33.5150099,1.2323331 L43.8815101,1.2323331 C44.1729015,1.2323331 44.5369917,1.2323331 44.8768886,1.27461263 C45.5627607,1.35918356 46.2303985,1.57665843 46.8312963,1.90285888 C47.438153,2.23511282 47.978389,2.67609233 48.4154164,3.2076844 C48.8584027,3.73323484 49.1982997,4.3433562 49.4107949,4.99576896 C49.5199624,5.32196941 49.5927804,5.66025311 49.6353271,5.99854868 L49.6535614,6.12539913 C49.6596396,6.16769053 49.6596396,6.20997006 49.6655985,6.25226146 C49.6716766,6.33683238 49.6777547,6.42140331 49.6777547,6.50597423 L49.6777547,7.88932905 C49.6777547,7.95577509 49.6899109,8.02222113 49.6899109,8.08866717 C49.695989,8.15512508 49.695989,8.22157112 49.7020671,8.28801717 L49.7324576,8.48736716 L49.7446138,8.58402134 C49.7505727,8.62025924 49.7566508,8.65046738 49.768807,8.68067552 C49.8841718,9.20018433 50.1026259,9.69552663 50.4121324,10.136518 C50.721758,10.5714559 51.1162387,10.9520191 51.5654224,11.2480233 C51.5896156,11.2661482 51.6200061,11.2842731 51.6502774,11.3023979 L51.7353708,11.3507191 C51.7960327,11.3869689 51.8506164,11.4171651 51.9112783,11.4534149 L52.0933829,11.537974 L52.1844353,11.5802298 C52.2148258,11.5923368 52.2450971,11.6044438 52.2754876,11.6165507 C52.4028894,11.66486 52.5243323,11.7192228 52.6578121,11.7493716 L52.852073,11.8037344 L53.0766053,11.8580972 L56.6514824,12.7582879 L58.4601348,13.2113507 L58.6058901,13.247553 L58.6787081,13.2657135 L58.745448,13.3019158 L59.012527,13.4468436 C59.0914231,13.4892181 59.1581631,13.5375274 59.2309811,13.5797832 C59.3037991,13.6280925 59.3766172,13.6703483 59.4433571,13.724711 L59.6497742,13.8818646 C59.7165142,13.9362274 59.7832541,13.9905902 59.849994,14.0449529 C59.9835931,14.1536785 60.0989579,14.2805646 60.2263596,14.4012784 C60.2870215,14.4616947 60.3417244,14.5281645 60.3963081,14.5946343 L60.4812824,14.6912529 C60.5116729,14.7275738 60.5358661,14.7577226 60.5601785,14.7940436 L60.7179708,14.9993878 L60.8575288,15.2168389 C60.8818412,15.2530412 60.9061536,15.2893622 60.930466,15.3255645 L60.9972059,15.4403435 C61.0396335,15.5128668 61.0821802,15.5913249 61.1246077,15.6638482 C61.1974257,15.820883 61.2763219,15.9719831 61.3371029,16.1350714 C61.5979846,16.7693831 61.7255055,17.4579388 61.7376617,18.1405597 L61.7376617,21.8134898 L61.767933,36.498682 Z" id="Shape"></path>
            <polygon id="Path" points="43.7480302 9.11562527 33.9277249 9.11562527 33.9277249 10.3237966 43.7480302 10.3237966"></polygon>
            <path d="M48.4760782,20.2609456 C48.3546354,20.1220713 48.2393898,19.9830782 48.1118689,19.8502574 L47.7356224,19.4576109 L47.3411417,19.0830062 C47.2075427,18.9621736 47.0679847,18.8414597 46.9284267,18.7206272 C46.3699564,18.2554574 45.7630997,17.8325434 45.1318114,17.4701644 C44.5006422,17.1076668 43.8330045,16.793597 43.1410543,16.5398249 C42.4553015,16.292225 41.7390389,16.1049226 41.0168174,15.9780366 C40.2945959,15.8511505 39.5661772,15.7907342 38.8317995,15.7847994 C38.1034999,15.7847994 37.3691222,15.8511505 36.6469007,15.9780366 C35.92456,16.1049226 35.2144947,16.292225 34.5225446,16.5398249 C33.8367917,16.793597 33.169154,17.1016133 32.5317875,17.4701644 C31.9006184,17.8325434 31.2997206,18.2554574 30.7352914,18.7206272 C30.5957334,18.8414597 30.4560563,18.9562388 30.3225764,19.0830062 L29.9341738,19.4515574 L29.5578082,19.8442039 C29.4364845,19.9770247 29.3150416,20.1160178 29.193718,20.2550108 C28.2529232,21.372534 27.5063893,22.6531455 27.0026219,24.0244408 C26.5049327,25.3957361 26.2500099,26.8575965 26.2439318,28.3073499 C26.2500099,29.7632755 26.4988546,31.2190824 27.0026219,32.5903777 C27.5063893,33.9615543 28.2529232,35.2422845 29.193718,36.3537542 C29.3150416,36.4927472 29.4304064,36.6316216 29.5578082,36.7645611 L29.9341738,37.1572076 L30.3286545,37.5316936 C30.4621344,37.6525262 30.6018115,37.7733588 30.7413695,37.8941913 C31.2997206,38.3593611 31.9006184,38.7821564 32.5378656,39.1446541 C33.1752321,39.507033 33.8367917,39.8212215 34.5286227,40.0689401 C35.2144947,40.31654 35.9306381,40.5038424 36.6529788,40.6307284 C37.3752003,40.7574958 38.1034999,40.8179121 38.8378776,40.8239656 C39.5661772,40.8239656 40.300674,40.7574958 41.0228955,40.6307284 C41.745117,40.5038424 42.4553015,40.31654 43.1471324,40.0689401 C43.8330045,39.815168 44.5006422,39.507033 45.1378895,39.1446541 C45.7691778,38.7821564 46.3699564,38.3593611 46.9343856,37.8941913 C47.0740628,37.7733588 47.2136208,37.6585797 47.3471007,37.5316936 L47.7417005,37.1572076 L48.117947,36.7645611 C48.2393898,36.6316216 48.3607135,36.4927472 48.4821563,36.3537542 C49.4228319,35.236231 50.1693658,33.9556195 50.6731332,32.5903777 C51.1708225,31.2190824 51.4257452,29.757222 51.4318233,28.3073499 C51.4257452,26.851543 51.1769006,25.3957361 50.6731332,24.0244408 C50.1634069,22.6531455 49.416873,21.372534 48.4760782,20.2609456 Z M49.5078062,32.1735172 C49.0526636,33.4118729 48.3789478,34.5596636 47.5352834,35.5684612 C47.426116,35.6892938 47.3229074,35.8161798 47.2075427,35.9370124 L46.8676457,36.2933379 L46.5096336,36.6316216 C46.3881907,36.7403472 46.260789,36.8490727 46.1393461,36.9577983 C45.6355787,37.3807123 45.0893838,37.7551983 44.5188765,38.0875472 C43.9483692,38.4197774 43.3474714,38.6976448 42.7283393,38.9211494 C42.1093264,39.1446541 41.4658819,39.3137959 40.8164784,39.428575 C40.167075,39.543354 39.5055153,39.5977168 38.8439557,39.6037703 C38.182396,39.6037703 37.5208364,39.543354 36.8714329,39.428575 C36.2220295,39.3137959 35.5787041,39.1446541 34.959572,38.9211494 C34.3404399,38.6915913 33.7396613,38.4137239 33.169154,38.0875472 C32.5986467,37.7551983 32.0523326,37.3807123 31.5485652,36.9577983 C31.4272415,36.8490727 31.2997206,36.7464006 31.1783969,36.6316216 L30.8202656,36.2933379 L30.4803687,35.9370124 C30.371082,35.8161798 30.2619145,35.6892938 30.1526279,35.5684612 C29.3028854,34.5596636 28.6352477,33.4058194 28.1801051,32.1735172 C27.7309215,30.9351614 27.5003112,29.6242824 27.5003112,28.3073499 C27.5063893,26.9964709 27.7309215,25.6796571 28.1801051,24.4413013 C28.6352477,23.2029456 29.3089635,22.0551549 30.1526279,21.0463573 C30.2619145,20.9255247 30.3650039,20.7986387 30.4803687,20.6778061 L30.8202656,20.3213619 L31.1783969,19.9830782 C31.2997206,19.8743526 31.4272415,19.7656271 31.5485652,19.6569015 C32.0523326,19.2341062 32.5986467,18.8595015 33.169154,18.5272713 C33.7396613,18.1950411 34.3404399,17.9171737 34.959572,17.6936691 C35.5787041,17.4701644 36.2220295,17.3010226 36.8714329,17.1862435 C37.5208364,17.0714645 38.182396,17.0171017 38.8439557,17.0110482 C39.5055153,17.0110482 40.167075,17.0714645 40.8164784,17.1862435 C41.4658819,17.3010226 42.1093264,17.4641109 42.7283393,17.6936691 C43.3474714,17.9232272 43.9483692,18.2010946 44.5188765,18.5272713 C45.0893838,18.8595015 45.6355787,19.2341062 46.1393461,19.6569015 C46.260789,19.7656271 46.3881907,19.8682992 46.5096336,19.9830782 L46.8676457,20.3213619 L47.2075427,20.6778061 C47.3168293,20.7986387 47.426116,20.9255247 47.5352834,21.0463573 C48.3850259,22.0551549 49.0526636,23.2088804 49.5078062,24.4413013 C49.9569898,25.6796571 50.1876001,26.9905361 50.1876001,28.3073499 C50.181522,29.6242824 49.9569898,30.9412149 49.5078062,32.1735172 Z" id="Shape"></path>
            <path d="M46.6188011,21.8133711 C46.5216706,21.7046455 46.4246593,21.5898665 46.3275289,21.4811409 L46.0239814,21.1610177 L45.7023187,20.8589363 C45.5931512,20.7623177 45.4777865,20.6655804 45.3684998,20.5689619 C44.9133573,20.1944759 44.4278242,19.8501387 43.9179787,19.5601642 C43.4081333,19.2641363 42.8680165,19.0165364 42.3156243,18.8110736 C41.7572732,18.6117829 41.1867659,18.4606829 40.6041024,18.3580108 C40.0214389,18.2553387 39.4326973,18.2070294 38.8378776,18.2009759 C38.2430579,18.2009759 37.6543162,18.2553387 37.0716527,18.3580108 C36.4891084,18.4606829 35.9184819,18.6117829 35.3601308,18.8110736 C34.8078578,19.0165364 34.2676219,19.2641363 33.7577764,19.5601642 C33.2480501,19.8561922 32.7623979,20.1944759 32.3072553,20.5689619 C32.1979687,20.6655804 32.0827231,20.7623177 31.9734364,20.8589363 L31.6517738,21.1610177 L31.3483454,21.4811409 C31.2451369,21.5898665 31.1540845,21.7046455 31.0569541,21.8133711 C30.298264,22.7134431 29.6974853,23.7464547 29.2907292,24.8519896 C28.8901704,25.9574058 28.6838725,27.1353452 28.6777944,28.3132847 C28.6838725,29.4913429 28.8840923,30.6692823 29.2907292,31.7746985 C29.6974853,32.8802334 30.298264,33.9131263 31.0569541,34.813317 C31.1540845,34.9220426 31.251215,35.0368216 31.3483454,35.1455472 L31.6517738,35.4656704 L31.9734364,35.7677518 C32.0827231,35.8704239 32.1979687,35.960989 32.3072553,36.0577263 C32.7623979,36.4322122 33.2480501,36.7765494 33.7577764,37.0665239 C34.2676219,37.3624331 34.8078578,37.6101517 35.3601308,37.8154958 C35.9184819,38.0149052 36.4891084,38.1658865 37.0716527,38.2685586 C37.6543162,38.3713494 38.2430579,38.4196587 38.8378776,38.4257122 C39.4326973,38.4257122 40.0214389,38.3713494 40.6041024,38.2685586 C41.1867659,38.1658865 41.7572732,38.0149052 42.3156243,37.8154958 C42.8680165,37.6101517 43.4081333,37.3624331 43.9179787,37.0665239 C44.4278242,36.7704959 44.9133573,36.4322122 45.3684998,36.0577263 C45.4777865,35.960989 45.5931512,35.8643704 45.7023187,35.7677518 L46.0239814,35.4656704 L46.3275289,35.1455472 C46.4306183,35.0368216 46.5216706,34.9220426 46.6188011,34.813317 C47.3774912,33.9131263 47.978389,32.8802334 48.3850259,31.7746985 C48.7855847,30.6692823 48.9920018,29.4913429 48.9979607,28.3132847 C48.9920018,27.1353452 48.7916628,25.9574058 48.3850259,24.8519896 C47.978389,23.7464547 47.3774912,22.7134431 46.6188011,21.8133711 Z M47.225777,31.3458497 C46.8676457,32.3123915 46.3396851,33.2185171 45.6720474,34.015917 C45.5870731,34.1125356 45.5020989,34.2152077 45.4171246,34.3057728 L45.1500457,34.5896937 L44.8647324,34.8555728 C44.7677212,34.9461379 44.6705907,35.0247147 44.5734603,35.1092262 C44.1729015,35.4414564 43.7480302,35.7374843 43.2988466,35.99731 C42.8497822,36.2570169 42.3762861,36.474468 41.8907531,36.6557169 C41.40522,36.8309122 40.9014527,36.9638518 40.3916072,37.0544169 C39.8818809,37.1449819 39.3598792,37.1873564 38.8378776,37.1932912 C38.3158759,37.1932912 37.7939934,37.1449819 37.2841479,37.0544169 C36.7743025,36.9638518 36.2705351,36.8369657 35.7850021,36.6557169 C35.299469,36.474468 34.8260921,36.2570169 34.3769085,35.99731 C33.9277249,35.7374843 33.5029728,35.4414564 33.1022948,35.1092262 C33.0052836,35.0247147 32.902075,34.9400844 32.8110227,34.8555728 L32.5257094,34.5896937 L32.2587497,34.3057728 C32.1676973,34.2091542 32.0888012,34.1125356 32.003827,34.015917 C31.3361892,33.2245706 30.8081094,32.3123915 30.4499782,31.3458497 C30.0980441,30.3732544 29.9220176,29.3462963 29.9159395,28.3072312 C29.9220176,27.2682848 30.0980441,26.2413267 30.4499782,25.2687314 C30.8081094,24.3021896 31.3361892,23.396064 32.003827,22.5986641 C32.0888012,22.5020455 32.1737754,22.3993734 32.2587497,22.3086896 L32.5257094,22.0308222 L32.8110227,21.7650618 C32.9081531,21.6744967 33.0052836,21.59592 33.1022948,21.5114084 C33.5029728,21.1790595 33.9277249,20.8831503 34.3769085,20.6233246 C34.8260921,20.3636177 35.299469,20.1461666 35.7850021,19.9649177 C36.2705351,19.7897224 36.7743025,19.6567828 37.2841479,19.5662177 C37.7939934,19.475534 38.3158759,19.4332782 38.8378776,19.4272247 C39.3598792,19.4272247 39.8818809,19.475534 40.3916072,19.5662177 C40.9014527,19.6567828 41.40522,19.7836689 41.8907531,19.9649177 C42.3762861,20.1461666 42.8497822,20.3636177 43.2988466,20.6233246 C43.7480302,20.8831503 44.1729015,21.1790595 44.5734603,21.5114084 C44.6705907,21.59592 44.7737993,21.6805502 44.8647324,21.7650618 L45.1500457,22.0308222 L45.4171246,22.3086896 C45.508177,22.4054269 45.5870731,22.5020455 45.6720474,22.5986641 C46.3396851,23.3900105 46.8676457,24.2961361 47.225777,25.2687314 C47.5778302,26.2413267 47.7538567,27.2682848 47.7598157,28.3072312 C47.7538567,29.3462963 47.5778302,30.3793079 47.225777,31.3458497 Z" id="Shape"></path>
        </g>
    </g>
</svg>