<?xml version="1.0" encoding="UTF-8"?>
<svg width="80px" height="80px" viewBox="0 0 80 80" version="1.1" xmlns="http://www.w3.org/2000/svg" xmlns:xlink="http://www.w3.org/1999/xlink">
    <title>Icons/Text/gaming/White</title>
    <g id="Icons/Text/gaming/White" stroke="none" stroke-width="1" fill="none" fill-rule="evenodd">
        <g id="Gaming_RGB_white" transform="translate(7, 25)" fill="#FFFFFF" fill-rule="nonzero">
            <path d="M66.687487,14.865862 C66.681087,14.775962 66.681087,14.679562 66.674687,14.583262 L66.655487,14.307162 L66.636187,14.031062 C66.629787,13.941162 66.623387,13.844762 66.610587,13.754862 L66.540087,13.202662 C66.527187,13.112762 66.514387,13.016462 66.495187,12.926562 L66.443887,12.650362 L66.392587,12.374262 C66.373287,12.284362 66.354087,12.194462 66.334887,12.098162 C66.289987,11.918362 66.251487,11.732162 66.206587,11.552362 L66.052787,11.012862 C65.623187,9.580912 64.988387,8.213122 64.167687,6.967352 C63.346987,5.721572 62.346787,4.591382 61.211987,3.634582 C61.070887,3.512572 60.923387,3.396982 60.775987,3.281392 L60.557987,3.108012 C60.487487,3.050222 60.410487,2.998852 60.333587,2.941052 C60.179687,2.831892 60.032187,2.722722 59.878387,2.619982 L59.410287,2.318172 L59.294887,2.241112 L59.173087,2.170472 L58.929387,2.029202 L58.685787,1.887922 C58.602387,1.842972 58.519087,1.798022 58.435687,1.759492 C58.268987,1.676012 58.102287,1.586112 57.935587,1.509062 L57.422687,1.277882 C56.056987,0.687102 54.595187,0.288969 53.114087,0.115588 C53.024287,0.102745 52.928087,0.089902 52.838387,0.08348 L52.562687,0.064215 C52.376687,0.051372 52.190787,0.032108 52.004887,0.025686 L51.453487,0 L15.246887,0 L14.689087,0.012843 C14.503187,0.019265 14.317187,0.038529 14.131287,0.051372 L13.855587,0.070637 C13.765787,0.077059 13.669587,0.096323 13.579887,0.102745 C12.098787,0.276126 10.643287,0.674262 9.277647,1.265042 L8.771127,1.496212 C8.604427,1.579692 8.437727,1.663172 8.271017,1.746652 C8.187667,1.791602 8.104317,1.830132 8.020967,1.875082 L7.777327,2.016362 L7.533677,2.157632 L7.411857,2.228272 L7.296447,2.305322 L6.828397,2.607142 C6.674517,2.709882 6.520637,2.819052 6.373177,2.928212 C6.296237,2.986002 6.219297,3.037382 6.148767,3.095172 L5.917947,3.274972 C5.770477,3.390562 5.623007,3.499732 5.481957,3.628162 C4.340687,4.591382 3.340467,5.715152 2.526187,6.960922 C1.705497,8.206702 1.070747,9.574482 0.641167,11.006462 L0.487287,11.545862 C0.442407,11.725662 0.403937,11.911962 0.359052,12.091762 C0.339817,12.181662 0.314171,12.271562 0.301347,12.367862 L0.256466,12.643962 L0.205173,12.920062 C0.185938,13.009962 0.173114,13.106362 0.160291,13.196262 L0.089763,13.748462 C0.07694,13.838362 0.070528,13.934662 0.064117,14.024562 L0.044882,14.300762 L0.025647,14.576862 C0.019235,14.666762 0.019235,14.763062 0.012823,14.859362 L0,15.424462 L0.012823,15.983162 C0.019235,16.073062 0.019235,16.169362 0.025647,16.265662 L0.044882,16.541862 L0.064117,16.817962 C0.070528,16.914262 0.07694,17.004162 0.089763,17.094062 L0.160291,17.646362 C0.173114,17.736262 0.185938,17.832562 0.205173,17.922462 L0.256466,18.198562 L0.307759,18.474662 C0.326994,18.564662 0.346229,18.654562 0.365464,18.750862 C0.410347,18.930662 0.448817,19.116862 0.493697,19.296662 L0.647577,19.836062 C1.070747,21.268062 1.711907,22.635862 2.532597,23.881662 C3.353287,25.127362 4.353507,26.257562 5.488367,27.214362 C5.629427,27.336362 5.776887,27.451962 5.924357,27.567562 L6.142357,27.740962 C6.212887,27.798762 6.289827,27.850162 6.366767,27.907962 C6.520637,28.017062 6.668107,28.126262 6.821987,28.228962 L7.290037,28.530762 L7.405447,28.607862 L7.527267,28.678462 L7.770907,28.819762 L8.014557,28.961062 C8.097907,29.005962 8.181257,29.050962 8.264607,29.089462 C8.431307,29.172962 8.598017,29.262862 8.764717,29.339962 L9.271237,29.571062 C10.643287,30.161862 12.098787,30.559962 13.573487,30.733362 C13.663187,30.746262 13.759387,30.759062 13.849187,30.765462 L14.124887,30.784762 C14.310787,30.797562 14.496687,30.816862 14.682687,30.823262 L15.240487,30.836162 L51.453487,30.836162 L52.011287,30.823262 C52.197187,30.816862 52.383087,30.797562 52.569087,30.784762 L52.844787,30.765462 C52.940987,30.759062 53.030687,30.739862 53.120487,30.733362 C54.601587,30.559962 56.056987,30.161862 57.429087,29.571062 L57.941987,29.339962 L58.442087,29.089462 C58.525487,29.044562 58.608787,29.005962 58.692187,28.961062 L58.935787,28.819762 L59.179487,28.678462 L59.301287,28.607862 L59.416687,28.530762 L59.884787,28.228962 C60.038587,28.126262 60.192487,28.017062 60.339987,27.907962 C60.416887,27.850162 60.493887,27.798762 60.564387,27.740962 L60.782387,27.567562 C60.929887,27.451962 61.077287,27.342862 61.218387,27.214362 C62.359687,26.251162 63.359887,25.127362 64.174187,23.881662 C64.994787,22.635862 65.629587,21.268062 66.059187,19.836062 L66.212987,19.296662 C66.257887,19.116862 66.296387,18.930662 66.341287,18.750862 C66.360487,18.660962 66.386187,18.571062 66.398987,18.474662 L66.450287,18.198562 L66.501587,17.922462 C66.520787,17.832562 66.533587,17.736262 66.546487,17.646362 L66.616987,17.094062 C66.629787,17.004162 66.636187,16.907862 66.642587,16.817962 L66.661887,16.541862 L66.681087,16.265662 C66.687487,16.175762 66.687487,16.079462 66.693887,15.983162 L66.706787,15.424462 L66.687487,14.865862 Z M65.385987,15.931762 C65.385987,16.015262 65.385987,16.105162 65.379487,16.188662 L65.360287,16.445462 L65.341087,16.702362 C65.334687,16.785862 65.328187,16.869362 65.315387,16.959262 L65.251287,17.466562 C65.244887,17.549962 65.225687,17.633462 65.212787,17.716962 L65.167987,17.967362 L65.123087,18.217862 C65.110287,18.301362 65.084587,18.384762 65.065387,18.468262 C65.026887,18.635262 64.988387,18.802162 64.949987,18.969162 L64.808887,19.463662 C64.417787,20.773662 63.834287,22.025762 63.084187,23.168862 C62.333987,24.311862 61.417087,25.339362 60.378487,26.219062 C60.250187,26.334662 60.115587,26.437362 59.980887,26.540162 L59.782187,26.700662 C59.718087,26.752062 59.641087,26.803462 59.576987,26.848362 C59.435887,26.944662 59.301287,27.047462 59.160187,27.143762 L58.730687,27.419862 L58.621687,27.490562 L58.512687,27.554762 L58.288287,27.683162 L58.063887,27.811562 C57.986887,27.856562 57.909987,27.888662 57.839387,27.933562 C57.685587,28.010662 57.538087,28.094162 57.384187,28.164762 L56.916187,28.376662 C55.665887,28.922562 54.332287,29.282162 52.979387,29.436262 C52.896087,29.449062 52.812687,29.461962 52.722987,29.468362 L52.466487,29.487662 C52.293387,29.500462 52.126687,29.519762 51.953587,29.519762 L51.440587,29.532562 L15.259687,29.532562 L14.746787,29.519762 C14.573687,29.513262 14.406987,29.494062 14.233887,29.487662 L13.977387,29.468362 C13.893987,29.461962 13.810687,29.449062 13.720887,29.436262 C12.368087,29.275662 11.034487,28.916062 9.784187,28.376662 L9.316117,28.164762 C9.162237,28.087762 9.014767,28.010662 8.860887,27.933562 C8.783947,27.895062 8.707007,27.856562 8.636487,27.811562 L8.412077,27.683162 L8.187667,27.554762 L8.078667,27.490562 L7.969677,27.419862 L7.540097,27.143762 C7.399037,27.047462 7.264387,26.944662 7.123337,26.848362 C7.052807,26.796962 6.982277,26.752062 6.918167,26.700662 L6.719407,26.540162 C6.584757,26.430962 6.450117,26.334662 6.321877,26.219062 C5.276787,25.339362 4.366327,24.305462 3.616167,23.168862 C2.866007,22.025762 2.282547,20.773662 1.891437,19.463662 L1.750377,18.969162 C1.711907,18.802162 1.673437,18.635262 1.634967,18.468262 C1.615737,18.384762 1.596497,18.301362 1.577267,18.217862 L1.532387,17.967362 L1.487497,17.716962 C1.474677,17.633462 1.455447,17.549962 1.449027,17.466562 L1.384917,16.959262 C1.372087,16.875762 1.365677,16.792262 1.359267,16.702362 L1.340037,16.445462 L1.320797,16.188662 C1.314387,16.105162 1.314387,16.015262 1.314387,15.931762 L1.301567,15.418062 L1.314387,14.904362 C1.314387,14.820862 1.314387,14.730962 1.320797,14.647462 L1.340037,14.390662 L1.359267,14.133762 C1.365677,14.050262 1.372087,13.966762 1.384917,13.876862 L1.449027,13.369562 C1.455447,13.286162 1.474677,13.202662 1.487497,13.119162 L1.532387,12.868762 L1.577267,12.618262 C1.590087,12.534762 1.615737,12.451362 1.634967,12.367862 C1.673437,12.200862 1.711907,12.033962 1.750377,11.866962 L1.891437,11.372462 C2.282547,10.062562 2.866007,8.810322 3.616167,7.667292 C4.366327,6.524262 5.283197,5.496822 6.321877,4.610652 C6.450117,4.495062 6.584757,4.398742 6.719407,4.289572 L6.918167,4.129042 C6.982277,4.077662 7.059217,4.026292 7.123337,3.981342 C7.264387,3.885022 7.399037,3.782272 7.540097,3.685952 L7.969677,3.409822 L8.078667,3.339192 L8.187667,3.274972 L8.412077,3.146542 L8.636487,3.018112 C8.707007,2.973162 8.790367,2.941052 8.860887,2.902522 C9.014767,2.825472 9.162237,2.741992 9.316117,2.671352 L9.784187,2.459442 C11.034487,1.913612 12.368087,1.554012 13.720887,1.399892 C13.804287,1.387052 13.887587,1.374202 13.977387,1.367782 L14.233887,1.348522 C14.400587,1.335672 14.573687,1.316412 14.746787,1.316412 L15.259687,1.303572 L51.440587,1.303572 L51.953587,1.316412 C52.126687,1.322832 52.293387,1.342102 52.466487,1.348522 L52.722987,1.367782 C52.806287,1.374202 52.889687,1.387052 52.979387,1.399892 C54.332287,1.560432 55.665887,1.920032 56.916187,2.459442 L57.384187,2.671352 C57.538087,2.748412 57.685587,2.825472 57.839387,2.902522 C57.916387,2.941052 57.993287,2.979582 58.063887,3.018112 L58.288287,3.146542 L58.512687,3.274972 L58.621687,3.339192 L58.730687,3.409822 L59.160187,3.685952 C59.301287,3.782272 59.435887,3.885022 59.576987,3.981342 C59.647487,4.032712 59.718087,4.077662 59.782187,4.135462 L59.980887,4.295992 C60.115587,4.405162 60.250187,4.501482 60.378487,4.617072 C61.423587,5.496822 62.333987,6.530682 63.084187,7.667292 C63.834287,8.810322 64.417787,10.062562 64.808887,11.372462 L64.949987,11.866962 C64.988387,12.033962 65.026887,12.200862 65.065387,12.367862 C65.084587,12.451362 65.103787,12.534762 65.123087,12.618262 L65.167987,12.868762 L65.212787,13.119162 C65.225687,13.202662 65.244887,13.286162 65.251287,13.369562 L65.315387,13.876862 C65.328187,13.960362 65.334687,14.043862 65.341087,14.133762 L65.360287,14.390662 L65.379487,14.647462 C65.385987,14.730962 65.385987,14.820862 65.385987,14.904362 L65.398787,15.418062 L65.385987,15.931762 Z" id="Shape"></path>
            <path d="M64.116387,14.724562 L64.097187,14.493362 L64.077987,14.262162 C64.071587,14.185162 64.065087,14.108062 64.058687,14.031062 L64.000987,13.568662 C63.994587,13.491562 63.981787,13.414562 63.962587,13.337462 L63.924087,13.099862 L63.885587,12.868762 C63.872787,12.791662 63.853587,12.714562 63.834287,12.637562 L63.725287,12.181662 L63.597087,11.732062 C63.244487,10.537662 62.712287,9.401102 62.026187,8.360812 C61.346587,7.326952 60.513087,6.389412 59.564187,5.586722 C59.448787,5.483972 59.320487,5.394072 59.198687,5.291332 L59.012787,5.150052 C58.955087,5.098682 58.884487,5.060152 58.826787,5.015202 C58.698587,4.925302 58.576787,4.835402 58.448487,4.745502 L58.057387,4.495062 L57.961287,4.430842 L57.858687,4.373052 L57.653487,4.257462 L57.448287,4.141872 C57.384187,4.103342 57.307287,4.071242 57.243187,4.032712 C57.102087,3.962072 56.967487,3.891432 56.826387,3.820802 L56.403187,3.628152 C55.261987,3.133702 54.050187,2.806202 52.819087,2.658502 C52.742187,2.652082 52.665187,2.639242 52.588287,2.632822 L52.357487,2.613552 C52.203587,2.600712 52.049687,2.587872 51.895787,2.581442 L51.427787,2.568602 L15.272487,2.568602 L14.804487,2.581442 C14.650587,2.587872 14.496687,2.600712 14.342887,2.613552 L14.105587,2.632822 C14.028687,2.639242 13.951687,2.652082 13.874787,2.658502 C12.643787,2.799782 11.431987,3.133702 10.290687,3.628152 L9.867487,3.820802 C9.726487,3.885012 9.591787,3.962072 9.450787,4.032712 C9.380187,4.071242 9.309697,4.103342 9.245587,4.141872 L9.046827,4.257462 L8.848067,4.373052 L8.745477,4.430842 L8.649297,4.495062 L8.258187,4.745502 C8.129957,4.835402 8.008137,4.925302 7.879907,5.015202 C7.815787,5.060152 7.751667,5.105102 7.693967,5.150052 L7.508027,5.291332 C7.386207,5.387652 7.257977,5.477552 7.142567,5.586722 C6.193637,6.389412 5.360127,7.326952 4.674087,8.367232 C3.988037,9.407522 3.462277,10.544162 3.103227,11.738562 L2.974997,12.188062 L2.865997,12.643962 C2.846767,12.721062 2.827527,12.798062 2.814707,12.875162 L2.776237,13.106362 L2.737767,13.337462 C2.724947,13.414562 2.712117,13.491562 2.699297,13.568662 L2.641587,14.031062 C2.628767,14.108062 2.628767,14.185162 2.622357,14.262162 L2.603117,14.493362 L2.583887,14.724562 C2.577477,14.801562 2.577477,14.878662 2.577477,14.955762 L2.564647,15.424462 L2.577477,15.893262 C2.577477,15.970362 2.577477,16.047362 2.583887,16.124462 L2.603117,16.355562 L2.622357,16.586762 C2.628767,16.663862 2.635177,16.740862 2.641587,16.817962 L2.699297,17.280262 C2.705707,17.357362 2.718527,17.434462 2.737767,17.511462 L2.776237,17.742662 L2.814707,17.973862 C2.827527,18.050862 2.846767,18.127962 2.865997,18.198562 L2.974997,18.654462 L3.103227,19.104062 C3.455867,20.298462 3.988037,21.435062 4.674087,22.475362 C5.353717,23.515562 6.193637,24.453162 7.142567,25.255862 C7.257977,25.358562 7.386207,25.448462 7.508027,25.551262 L7.693967,25.692462 C7.751667,25.743862 7.822197,25.782362 7.879907,25.827362 C8.008137,25.917262 8.129957,26.007162 8.258187,26.097062 L8.649297,26.347462 L8.745477,26.411662 L8.848067,26.469462 L9.046827,26.585062 L9.245587,26.700662 C9.316107,26.739162 9.380187,26.771262 9.450787,26.809862 C9.591787,26.880462 9.726487,26.951062 9.867487,27.021762 L10.290687,27.214362 C11.431987,27.708862 12.643787,28.036362 13.874787,28.184062 C13.951687,28.190462 14.028687,28.203262 14.105587,28.209762 L14.336387,28.228962 C14.490287,28.241862 14.644187,28.254662 14.798087,28.261062 L15.266087,28.273962 L51.421387,28.273962 L51.889387,28.261062 C52.043287,28.254662 52.197187,28.241862 52.351087,28.228962 L52.581887,28.209762 C52.658787,28.203262 52.735787,28.190462 52.812687,28.184062 C54.043687,28.042762 55.255487,27.708862 56.396787,27.214362 L56.819987,27.021762 C56.960987,26.957562 57.095687,26.880462 57.236687,26.809862 C57.307287,26.771262 57.377787,26.739162 57.441887,26.700662 L57.647087,26.585062 L57.852287,26.469462 L57.954887,26.411662 L58.050987,26.347462 L58.442087,26.097062 C58.570387,26.007162 58.698587,25.917262 58.820387,25.827362 C58.884487,25.782362 58.948687,25.737462 59.006387,25.692462 L59.192287,25.551262 C59.314087,25.454862 59.442387,25.364962 59.557787,25.255862 C60.506687,24.453162 61.340187,23.515562 62.026187,22.475362 C62.712287,21.435062 63.237987,20.298462 63.597087,19.104062 L63.725287,18.654462 L63.834287,18.198562 C63.853587,18.121562 63.872787,18.044462 63.885587,17.973862 L63.924087,17.742662 L63.962587,17.511462 C63.975387,17.434462 63.988187,17.357362 64.000987,17.280262 L64.058687,16.817962 C64.071587,16.740862 64.071587,16.663862 64.077987,16.586762 L64.097187,16.355562 L64.116387,16.124462 C64.122887,16.047362 64.122887,15.970362 64.122887,15.893262 L64.135687,15.424462 L64.122887,14.955762 C64.122887,14.878662 64.122887,14.801562 64.116387,14.724562 Z M62.821287,15.841862 C62.821287,15.912562 62.821287,15.983162 62.814887,16.053762 L62.795587,16.265662 L62.782787,16.477662 C62.776387,16.548262 62.776387,16.618862 62.763587,16.683062 L62.712287,17.100462 C62.705887,17.171162 62.693087,17.235362 62.680187,17.305962 L62.641787,17.511462 L62.603287,17.716962 C62.590487,17.787562 62.571187,17.851862 62.558387,17.922462 L62.462187,18.333462 L62.346787,18.737962 C62.026187,19.803962 61.551787,20.831362 60.936287,21.762562 C60.320687,22.693662 59.570587,23.541262 58.717787,24.260462 C58.615287,24.356862 58.499787,24.433862 58.390787,24.523762 L58.224087,24.652162 C58.172787,24.697162 58.108687,24.735662 58.050987,24.774262 C57.935587,24.851262 57.826587,24.934762 57.711187,25.018262 L57.358587,25.242962 L57.268787,25.300762 L57.178987,25.352162 L56.999487,25.454862 L56.819987,25.557662 C56.762287,25.589762 56.698187,25.621862 56.634087,25.653962 C56.512187,25.718162 56.383987,25.782362 56.262187,25.846562 L55.883887,26.019962 C54.857987,26.463062 53.774487,26.758462 52.665187,26.886862 C52.594687,26.893362 52.524187,26.906162 52.460087,26.912562 L52.248487,26.925462 C52.107387,26.931862 51.972787,26.951062 51.831687,26.957562 L51.414987,26.970362 L15.285387,26.970362 L14.868587,26.957562 C14.727587,26.951062 14.586487,26.938262 14.451887,26.925462 L14.240287,26.912562 C14.169687,26.906162 14.099187,26.893362 14.035087,26.886862 C12.925887,26.758462 11.842287,26.463062 10.816387,26.019962 L10.438187,25.846562 C10.309887,25.782362 10.188087,25.718162 10.066287,25.653962 C10.002187,25.621862 9.944487,25.589762 9.880287,25.557662 L9.700787,25.454862 L9.521287,25.352162 L9.431487,25.300762 L9.341757,25.242962 L8.989117,25.018262 C8.873707,24.941162 8.758297,24.857662 8.649297,24.774262 C8.591597,24.735662 8.533887,24.697162 8.482597,24.652162 L8.315897,24.523762 C8.206897,24.433862 8.091487,24.356862 7.988897,24.260462 C7.136157,23.541262 6.385987,22.693662 5.770477,21.762562 C5.154957,20.831362 4.680497,19.803962 4.359907,18.737962 L4.244497,18.333462 L4.148327,17.922462 C4.135507,17.851862 4.116267,17.787562 4.103447,17.716962 L4.064977,17.511462 L4.026507,17.305962 C4.013687,17.235362 4.000857,17.171162 3.994447,17.100462 L3.943157,16.683062 C3.930327,16.612462 3.930327,16.541862 3.923917,16.477662 L3.911097,16.265662 L3.891857,16.053762 C3.885447,15.983162 3.885447,15.912562 3.885447,15.841862 L3.872627,15.424462 L3.885447,15.007062 C3.885447,14.936462 3.885447,14.865862 3.891857,14.795162 L3.911097,14.583262 L3.923917,14.371362 C3.930327,14.300762 3.930327,14.230062 3.943157,14.165862 L3.994447,13.748462 C4.000857,13.677862 4.013687,13.613662 4.026507,13.542962 L4.064977,13.337462 L4.103447,13.131962 C4.116267,13.061362 4.135507,12.997162 4.148327,12.926562 L4.244497,12.515562 L4.359907,12.110962 C4.680497,11.044962 5.154957,10.017562 5.770477,9.086442 C6.385987,8.148902 7.136157,7.307682 7.988897,6.588472 C8.091487,6.492152 8.206897,6.415092 8.315897,6.325192 L8.482597,6.196762 C8.540307,6.151812 8.598007,6.113282 8.649297,6.074752 C8.764707,5.997692 8.873707,5.914212 8.989117,5.830732 L9.341757,5.605982 L9.431487,5.548192 L9.521287,5.496812 L9.700787,5.394072 L9.880287,5.291332 C9.938087,5.252802 10.002187,5.227112 10.066287,5.195002 C10.188087,5.130792 10.316287,5.066572 10.438187,5.002362 L10.816387,4.828982 C11.842287,4.385892 12.925887,4.090502 14.035087,3.962072 C14.105587,3.955652 14.176187,3.942812 14.240287,3.936392 L14.451887,3.923542 C14.592887,3.917122 14.727587,3.897862 14.868587,3.891432 L15.285387,3.878592 L51.414987,3.878592 L51.831687,3.891432 C51.972787,3.897862 52.107387,3.910702 52.248487,3.923542 L52.460087,3.936392 C52.530587,3.942812 52.601087,3.955652 52.665187,3.962072 C53.774487,4.090502 54.857987,4.385892 55.883887,4.828982 L56.262187,5.002362 C56.390387,5.060152 56.512187,5.130792 56.634087,5.195002 C56.698187,5.227112 56.762287,5.259222 56.819987,5.291332 L56.999487,5.394072 L57.178987,5.496812 L57.268787,5.548192 L57.358587,5.605982 L57.711187,5.830732 C57.826587,5.907792 57.935587,5.991272 58.050987,6.074752 C58.108687,6.113282 58.166387,6.151812 58.217687,6.196762 L58.384387,6.325192 C58.493387,6.415092 58.608787,6.492152 58.711387,6.588472 C59.564187,7.307682 60.314287,8.155322 60.929887,9.086442 C61.545387,10.017562 62.019787,11.044962 62.340387,12.110962 L62.455787,12.515562 L62.551987,12.926562 C62.564787,12.997162 62.584087,13.061362 62.596887,13.131962 L62.635387,13.337462 L62.673787,13.542962 C62.686587,13.613662 62.699487,13.677862 62.705887,13.748462 L62.757187,14.165862 C62.769987,14.236462 62.769987,14.307162 62.776387,14.371362 L62.789187,14.583262 L62.808487,14.795162 C62.814887,14.865862 62.814887,14.936462 62.814887,15.007062 L62.827687,15.424462 L62.821287,15.841862 Z" id="Shape"></path>
            <path d="M58.628087,13.042062 C58.506287,12.656762 58.345987,12.284362 58.166387,11.924662 C57.986887,11.565062 57.775287,11.218362 57.531687,10.890862 C56.589187,9.580862 55.223487,8.585522 53.678287,8.084642 C52.139487,7.583762 50.459587,7.583762 48.914387,8.084642 C47.375587,8.585522 46.009987,9.574432 45.060987,10.884462 C44.823787,11.211962 44.612187,11.558662 44.426287,11.918262 C44.246787,12.277862 44.086487,12.650362 43.964687,13.035662 C43.842787,13.420962 43.746687,13.812662 43.682487,14.217162 C43.618387,14.615362 43.592787,15.019862 43.586387,15.424462 C43.586387,15.828962 43.618387,16.227162 43.682487,16.631662 C43.746687,17.029862 43.842787,17.427962 43.964687,17.813262 C44.086487,18.198562 44.246787,18.570962 44.426287,18.930562 C44.612187,19.290162 44.817387,19.636962 45.060987,19.964462 C46.003587,21.274462 47.375587,22.269762 48.914387,22.764262 C50.453187,23.265162 52.133087,23.265162 53.678287,22.764262 C55.217087,22.263362 56.582787,21.274462 57.531687,19.964462 C57.768887,19.636962 57.980487,19.290162 58.166387,18.930562 C58.345987,18.570962 58.506287,18.198562 58.628087,17.813262 C58.749887,17.427962 58.846087,17.036262 58.910187,16.631662 C58.974287,16.233562 58.999987,15.828962 59.006387,15.424462 C59.006387,15.019862 58.974287,14.621762 58.910187,14.217162 C58.846087,13.819062 58.749887,13.427362 58.628087,13.042062 Z M57.621487,16.426162 C57.570187,16.760162 57.486787,17.087662 57.384187,17.402262 C57.281587,17.723362 57.153387,18.031562 56.999487,18.333362 C56.845587,18.635162 56.672487,18.917762 56.473787,19.193862 C55.691487,20.285562 54.550287,21.107462 53.274387,21.524862 C51.998387,21.942262 50.594287,21.942262 49.318387,21.524862 C48.042487,21.107462 46.901187,20.285562 46.118987,19.193862 C45.920187,18.924162 45.747087,18.635162 45.593187,18.333362 C45.439287,18.031562 45.311087,17.723362 45.208487,17.402262 C45.105887,17.081162 45.028987,16.753662 44.971287,16.426162 C44.919987,16.092262 44.894287,15.758362 44.894287,15.424462 C44.894287,15.090562 44.919987,14.756562 44.971287,14.422662 C45.022587,14.088762 45.105887,13.761262 45.208487,13.446562 C45.311087,13.125562 45.439287,12.817262 45.593187,12.515462 C45.747087,12.213662 45.920187,11.931162 46.118987,11.654962 C46.901187,10.563362 48.042487,9.741362 49.318387,9.323992 C50.594287,8.906602 51.998387,8.906602 53.274387,9.323992 C54.550287,9.741362 55.691487,10.563362 56.473787,11.654962 C56.672487,11.924662 56.845587,12.213662 56.999487,12.515462 C57.153387,12.817262 57.281587,13.125562 57.384187,13.446562 C57.486787,13.767662 57.563687,14.095162 57.621487,14.422662 C57.672687,14.756562 57.698387,15.090562 57.698387,15.424462 C57.698387,15.758362 57.672687,16.092262 57.621487,16.426162 Z" id="Shape"></path>
            <path d="M52.889687,10.524862 C51.870187,10.190962 50.735287,10.190962 49.715887,10.524862 C48.689987,10.858762 47.779587,11.520162 47.144787,12.393562 C46.510087,13.266862 46.157387,14.339262 46.1637014,15.418062 C46.1637014,16.496862 46.510087,17.569262 47.144787,18.442562 C47.773187,19.315962 48.689987,19.983762 49.715887,20.311262 C50.735287,20.645162 51.870187,20.645162 52.896087,20.311262 C53.921887,19.977362 54.832387,19.315962 55.467087,18.442562 C56.101887,17.569262 56.454487,16.496862 56.4481726,15.418062 C56.4481726,14.339262 56.101887,13.266862 55.467087,12.393562 C54.825987,11.520162 53.909087,10.858762 52.889687,10.524862 Z M54.402787,17.678462 C53.934787,18.333462 53.242287,18.827862 52.485687,19.078362 C51.729087,19.328762 50.869987,19.328762 50.113387,19.078362 C49.356787,18.827862 48.664387,18.339862 48.196287,17.678462 C47.721887,17.023462 47.465387,16.233562 47.465387,15.424462 C47.465387,14.615362 47.721887,13.819062 48.196287,13.170562 C48.664387,12.515562 49.356787,12.021062 50.113387,11.770662 C50.869987,11.520162 51.729087,11.520162 52.485687,11.770662 C53.242287,12.021062 53.934787,12.515562 54.402787,13.170562 C54.877287,13.825562 55.133687,14.615362 55.133687,15.424462 C55.133687,16.233562 54.877287,17.029862 54.402787,17.678462 Z" id="Shape"></path>
            <path d="M16.663887,6.434322 C11.707687,6.434322 7.687557,10.460662 7.687557,15.424462 C7.687557,20.388262 11.707687,24.414562 16.663887,24.414562 C21.620087,24.414562 25.640187,20.388262 25.640187,15.424462 C25.640187,10.460662 21.620087,6.434322 16.663887,6.434322 Z M22.107387,20.869862 C20.651887,22.327562 18.721987,23.123862 16.663887,23.123862 C14.605687,23.123862 12.675787,22.321162 11.220387,20.869862 C9.764887,19.412262 8.969887,17.479362 8.969887,15.424462 C8.969887,13.369562 9.771387,11.430262 11.220387,9.972562 C12.669387,8.514902 14.605687,7.712212 16.663887,7.712212 C18.721987,7.712212 20.651887,8.514902 22.107387,9.972562 C23.562787,11.430262 24.357787,13.363162 24.357787,15.424462 C24.357787,17.485762 23.556387,19.418662 22.107387,20.869862 Z" id="Shape"></path>
            <polygon id="Path" points="17.304987 10.833162 16.022687 10.833162 16.022687 14.782362 12.175687 14.782362 12.175687 16.066662 16.022687 16.066662 16.022687 20.009462 17.304987 20.009462 17.304987 16.066662 21.151987 16.066662 21.151987 14.782362 17.304987 14.782362"></polygon>
        </g>
    </g>
</svg>