<svg enable-background="new 0 0 34.0903 32.0001" viewBox="0 0 34.0903 32.0001" xmlns="http://www.w3.org/2000/svg"><g fill="#6c6c70"><path d="m25.7706 26.8417c-2.5892 2.3342-6.0067 3.7673-9.7673 3.7673-2.8955-.0137-5.7239-.8737-8.137-2.474-4.0643-2.696-6.4973-7.2579-6.472-12.135 0-8.0684 6.5407-14.609 14.609-14.609 6.7391 0 12.3968 4.5693 14.0833 10.7743.5687.1754 1.105.4211 1.6086.7169-1.4513-7.3434-7.9227-12.8824-15.6919-12.8821-4.2457-.0112-8.3196 1.6761-11.314 4.686-.7418.7416-1.4089 1.5544-1.9916 2.4266-4.9089 7.3476-2.9319 17.2834 4.4156 22.1924 2.6371 1.746 5.7273 2.6827 8.89 2.695 4.2457.0112 8.3196-1.6761 11.314-4.686.0641-.0641.1188-.1356.1818-.2007-.5966-.0256-1.175-.1172-1.7285-.2717z"/><path d="m15.6443 6.817c1.0493 0 1.9.8507 1.9 1.9s-.8507 1.9-1.9 1.9-1.9-.8507-1.9-1.9c-.0033-1.046.842-1.8967 1.888-1.9zm6.659 5.39c-1.3995.2106-2.8127.3166-4.228.317-.211 0-.423.317-.423.528v4.333l2.325 7.5c.1423.3793-.046.8026-.423.951-.0842.0814-.2008.1203-.317.106-.2799.0085-.5344-.1613-.634-.423l-2.536-5.913c-.106-.423-.634-.423-.846 0l-2.537 5.919c-.1121.2514-.3588.416-.634.423-.106 0-.211-.106-.317-.106-.423-.106-.528-.528-.423-.951l2.325-7.5v-4.338c.0258-.2617-.162-.4961-.423-.528-1.373-.108-2.853-.108-4.227-.318-.3937-.0822-.6651-.444-.634-.845.0823-.3941.4446-.6657.846-.634 2.1422.2147 4.294.3206 6.447.317 2.153.0036 4.3048-.1022 6.447-.317.423 0 .846.211.846.634s-.212.845-.634.845z"/><path d="m27.8293 13.217c-3.4579 0-6.261 2.8032-6.261 6.261s2.8031 6.261 6.261 6.261c3.4578 0 6.261-2.8032 6.261-6.261 0-3.4579-2.8032-6.261-6.261-6.261zm2.3187 7.5959c.2717.2717.2717.7122 0 .9838-.2717.2717-.7122.2717-.9838 0l-1.3349-1.3348-1.3352 1.3352c-.2717.2716-.7122.2716-.9839 0-.2717-.2717-.2717-.7122 0-.9838l1.3352-1.3352-1.3352-1.3352c-.2717-.2717-.2717-.7122 0-.9838.2717-.2717.7122-.2717.9839 0l1.3352 1.3351 1.3349-1.3348c.2716-.2717.7121-.2717.9838 0 .2717.2716.2717.7121 0 .9838l-1.3348 1.335z"/></g></svg>